# xmcd CD database file
#
# Track frame offsets:
#	150
#	14754
#	29395
#	42830
#	56999
#	70611
#	84120
#	97577
#	112823
#	127708
#	140140
#	153433
#	168999
#	183119
#	198095
#	214791
#	228671
#	242357
#	255319
#	268793
#
# Disc length: 3716 seconds
#
# Revision: 1
# Processed by: cddbd v1.5.2PL0 Copyright (c) Steve Scherf et al.
# Submitted via: CDex 1.51
#
DISCID=fc0e8214
DTITLE=Schlager - Duett-Stars der Volksmusik
DYEAR=2009
DGENRE=Volksmusik
TTITLE0=Amigos - Du bist der Helle Wahnsinn
TTITLE1=Die Ladiner - Wahre Liebe, ein Leben lang
TTITLE2=Judith and Mel - Familie ist Heimat
TTITLE3=Vincent and Fernando - Wenn er die Berge sieht
TTITLE4=Sigrid and Marina - Einfach glücklich sein
TTITLE5=Belsy - Das Glück ist in den Sternen (Duett mit Graziano)
TTITLE6=Die Wildecker Herzbuben - Nur die Ewigkeit ist ewig
TTITLE7=Maria and Margot Hellwig - Ein liebes Wort zur rechten Zeit
TTITLE8=Orig. Naabtal Duo - ,s Leben is koa Wunschkonzert
TTITLE9=Sigrid and Marina - Ave Maria, beschütz' die Heimat
TTITLE10=Vreni and Rudi - Ein Strauß mit lieben Worten
TTITLE11=Amigos - Sandy
TTITLE12=Judith and Mel - Dank an die Eltern
TTITLE13=Orig. Naabtal Duo - Bis in alle Ewigkeit
TTITLE14=Die Ladiner - Dunkle Augen
TTITLE15=Dagmar and Marc Bell - Ich küsse dir die Sehnsucht fort
TTITLE16=Vincent and Fernando - Glaube an Gott
TTITLE17=Vreni and Rudi - Man braucht nicht viel zum Glücklichsein
TTITLE18=Rudy Giovannini and Belsy - Salve Regina
TTITLE19=Die Kasermandln - A bisserl Z'friedenheit
EXTD=YEAR: 2009
EXTT0=
EXTT1=
EXTT2=
EXTT3=
EXTT4=
EXTT5=
EXTT6=
EXTT7=
EXTT8=
EXTT9=
EXTT10=
EXTT11=
EXTT12=
EXTT13=
EXTT14=
EXTT15=
EXTT16=
EXTT17=
EXTT18=
EXTT19=
PLAYORDER=
